<svg xmlns="http://www.w3.org/2000/svg" width="24" height="24" viewBox="0 0 24 24">
  <path fill="#0B1020" opacity=".16" d="M2.8 7.2c0-1.05.85-1.9 1.9-1.9h5.05l1.9 2.05h7.65c1.05 0 1.9.85 1.9 1.9v8.35c0 1.05-.85 1.9-1.9 1.9H4.7a1.9 1.9 0 0 1-1.9-1.9V7.2Z"/>
  <path fill="#7A22FF" d="M2.8 7.3c0-1.05.85-1.9 1.9-1.9h5.05l1.9 2.05h7.65c1.05 0 1.9.85 1.9 1.9v1.25H2.8V7.3Z"/>
  <path fill="#F8FBFF" opacity="1" d="M2.8 10.2h18.4v7.4c0 1.05-.85 1.9-1.9 1.9H4.7a1.9 1.9 0 0 1-1.9-1.9v-7.4Z"/>
  <path fill="#7A22FF" opacity=".72" d="M4.1 11.45h15.8v5.7c0 .55-.45 1-1 1H5.1c-.55 0-1-.45-1-1v-5.7Z"/>
</svg>
