<svg xmlns="http://www.w3.org/2000/svg" width="24" height="24" viewBox="0 0 24 24">
  <path fill="#0B1020" opacity=".14" d="M5 2.8h9.2L20 8.6V20a1.8 1.8 0 0 1-1.8 1.8H5A1.8 1.8 0 0 1 3.2 20V4.6A1.8 1.8 0 0 1 5 2.8Z"/>
  <path fill="#F8FBFF" d="M5 2.2h9.2L20.6 8.6V20A1.8 1.8 0 0 1 18.8 21.8H5A1.8 1.8 0 0 1 3.2 20V4A1.8 1.8 0 0 1 5 2.2Z"/>
  <path fill="#D14B1D" d="M14.1 2.2v4.65c0 1.02.83 1.85 1.85 1.85h4.65L14.1 2.2Z"/>
  <rect x="5.25" y="11.05" width="13.3" height="7.1" rx="1.55" fill="#D14B1D"/>
  <text x="11.9" y="16.45" text-anchor="middle" font-family="SF Mono, Menlo, monospace" font-size="5.6" font-weight="800" fill="#F8FBFF">H</text>
</svg>
