<svg xmlns="http://www.w3.org/2000/svg" width="24" height="24" viewBox="0 0 24 24">
  <path fill="#ffffff" stroke="#c9d0da" stroke-linejoin="round" stroke-width="1.2" d="M6.1 3.25h8.05l4.75 4.75v11.15c0 .88-.72 1.6-1.6 1.6H6.1c-.88 0-1.6-.72-1.6-1.6V4.85c0-.88.72-1.6 1.6-1.6Z"/>
  <path fill="#f1f3f6" stroke="#c9d0da" stroke-linejoin="round" stroke-width="1" d="M14.15 3.25V7.1c0 .5.4.9.9.9h3.85"/>
  <path fill="#64748b" opacity=".1" d="M6.55 14.2h10.9v3.9c0 .5-.4.9-.9.9h-9.1c-.5 0-.9-.4-.9-.9v-3.9Z"/>
  <path fill="none" stroke="#64748b" stroke-linecap="round" stroke-width="1.05" opacity=".55" d="M7.5 9.65h4.5m-4.5 2.35h7.6"/>
  <text x="12" y="17.55" text-anchor="middle" font-family="SF Mono, Menlo, monospace" font-size="5.65" font-weight="700" fill="#64748b">•</text>
</svg>
