<svg xmlns="http://www.w3.org/2000/svg" width="24" height="24" viewBox="0 0 24 24">
  <defs>
    <filter id="glow" x="-40%" y="-40%" width="180%" height="180%">
      <feDropShadow dx="0" dy="0" stdDeviation="1.05" flood-color="#2F7DFF" flood-opacity=".72"/>
    </filter>
  </defs>
  <path fill="#0B1020" d="M5.1 2.5h8.85l6.25 6.15v11.05l-1.95 1.95H5.1L3.55 20.1V4.05L5.1 2.5Z"/>
  <path fill="#2F7DFF" opacity=".18" d="M5.15 4.1h7.6v4.65l1.75 1.75h4.05v8.1l-.9.9H5.95l-.8-.8V4.1Z"/>
  <path fill="none" stroke="#2F7DFF" stroke-linejoin="round" stroke-width="1.25" d="M5.1 2.5h8.85l6.25 6.15v11.05l-1.95 1.95H5.1L3.55 20.1V4.05L5.1 2.5Z" filter="url(#glow)"/>
  <path fill="#2F7DFF" opacity=".9" d="M13.95 2.5v4.25c0 1.05.85 1.9 1.9 1.9h4.35L13.95 2.5Z"/>
  <path fill="none" stroke="#2F7DFF" stroke-linecap="round" stroke-width=".8" d="M7 7.05h3.6m-3.6 2.8h2.35m5.2 3.05h2.1m-9.65 0h3.25m-3.25 5.15h2.2"/>
  <circle cx="11.65" cy="7.05" r=".72" fill="#2F7DFF"/>
  <circle cx="10.35" cy="9.85" r=".72" fill="#2F7DFF"/>
  <circle cx="13.25" cy="12.9" r=".72" fill="#2F7DFF"/>
  <path fill="#2F7DFF" d="M6.1 13.95h10.95l1.25 1.2-1.25 3.95H6.1l-1.25-1.25v-2.65l1.25-1.25Z"/>
  <path fill="#FFFFFF" opacity=".18" d="M7.1 14.85h9.15l.5.5-.55 1.85H7.1l-.5-.5v-1.35l.5-.5Z"/>
  <text x="11.55" y="18.15" text-anchor="middle" font-family="SF Mono, Menlo, monospace" font-size="5.55" font-weight="900" fill="#F8FBFF">PB</text>
</svg>
